HIERARCHY
ROOT newVegas:Hips
{
	OFFSET 0.000000 96.479958 0.000000
	CHANNELS 6 Xposition Yposition Zposition Xrotation Yrotation Zrotation
	JOINT newVegas:Pelvis
	{
		OFFSET 0.000000 0.000000 0.000000
		CHANNELS 3 Xrotation Yrotation Zrotation
		JOINT newVegas:LeftUpLeg
		{
			OFFSET 18.735201 -5.666702 -4.541200
			CHANNELS 3 Xrotation Yrotation Zrotation
			JOINT newVegas:LeftLeg
			{
				OFFSET -0.021200 -31.938179 0.493100
				CHANNELS 3 Xrotation Yrotation Zrotation
				JOINT newVegas:LeftFoot
				{
					OFFSET 0.021200 -31.938179 -4.336299
					CHANNELS 3 Xrotation Yrotation Zrotation
					JOINT newVegas:LeftToeBase
					{
						OFFSET 0.943001 -26.722000 15.023500
						CHANNELS 3 Xrotation Yrotation Zrotation
						End Site
						{
							OFFSET 0.000000 30.670183 0.000000
						}
					}
				}
				JOINT newVegas:Left_PantLeg
				{
					OFFSET 0.663870 -9.044666 -1.108900
					CHANNELS 3 Xrotation Yrotation Zrotation
					End Site
					{
						OFFSET 1.415995 20.635357 0.000000
					}
				}
			}
		}
		JOINT newVegas:RightUpLeg
		{
			OFFSET -18.735201 -5.666702 -4.541200
			CHANNELS 3 Xrotation Yrotation Zrotation
			JOINT newVegas:RightLeg
			{
				OFFSET 0.018946 -31.938133 0.493100
				CHANNELS 3 Xrotation Yrotation Zrotation
				JOINT newVegas:RightFoot
				{
					OFFSET -0.018946 -31.938126 -4.336299
					CHANNELS 3 Xrotation Yrotation Zrotation
					JOINT newVegas:RightToeBase
					{
						OFFSET -0.943001 -26.722004 15.023500
						CHANNELS 3 Xrotation Yrotation Zrotation
						End Site
						{
							OFFSET 0.000000 30.670187 0.000000
						}
					}
				}
				JOINT newVegas:Right_PantLeg
				{
					OFFSET -0.661674 -9.044716 -1.108900
					CHANNELS 3 Xrotation Yrotation Zrotation
					End Site
					{
						OFFSET -1.415958 20.635269 0.000000
					}
				}
			}
		}
	}
	JOINT newVegas:Spine
	{
		OFFSET 0.000000 10.199997 -0.299500
		CHANNELS 3 Xrotation Yrotation Zrotation
		JOINT newVegas:Spine1
		{
			OFFSET 0.000000 11.900002 -1.516600
			CHANNELS 3 Xrotation Yrotation Zrotation
			JOINT newVegas:Spine2
			{
				OFFSET 0.000000 13.600006 -2.842500
				CHANNELS 3 Xrotation Yrotation Zrotation
				JOINT newVegas:Neck
				{
					OFFSET 0.000000 9.624100 -2.890100
					CHANNELS 3 Xrotation Yrotation Zrotation
					JOINT newVegas:Head
					{
						OFFSET 0.000000 14.068802 -1.351900
						CHANNELS 3 Xrotation Yrotation Zrotation
						JOINT newVegas:Hair_Back
						{
							OFFSET 0.000000 3.231903 -17.524799
							CHANNELS 3 Xrotation Yrotation Zrotation
							End Site
							{
								OFFSET 0.000000 19.849884 0.000000
							}
						}
						JOINT newVegas:Hair_Front
						{
							OFFSET 0.000000 31.260406 4.573800
							CHANNELS 3 Xrotation Yrotation Zrotation
							JOINT newVegas:Hair_Front1
							{
								OFFSET 0.000000 2.284103 11.993300
								CHANNELS 3 Xrotation Yrotation Zrotation
								JOINT newVegas:Hair_Front2
								{
									OFFSET 0.000000 2.284103 11.993300
									CHANNELS 3 Xrotation Yrotation Zrotation
									End Site
									{
										OFFSET 0.000000 12.208862 0.000000
									}
								}
							}
						}
						JOINT newVegas:Jowel
						{
							OFFSET 0.000000 -7.458206 6.864100
							CHANNELS 3 Xrotation Yrotation Zrotation
							End Site
							{
								OFFSET 0.000000 19.849884 0.000000
							}
						}
					}
				}
				JOINT newVegas:LeftShoulder
				{
					OFFSET 15.263000 10.923401 -0.547700
					CHANNELS 3 Xrotation Yrotation Zrotation
					JOINT newVegas:LeftArm
					{
						OFFSET 25.438599 -2.830597 -13.032500
						CHANNELS 3 Xrotation Yrotation Zrotation
						JOINT newVegas:LeftForeArm
						{
							OFFSET 29.960503 0.000000 0.000000
							CHANNELS 3 Xrotation Yrotation Zrotation
							JOINT newVegas:LeftHand
							{
								OFFSET 27.849251 0.000000 0.000000
								CHANNELS 3 Xrotation Yrotation Zrotation
								JOINT newVegas:LeftHandThumb1
								{
									OFFSET 4.487587 -3.305161 6.305391
									CHANNELS 3 Xrotation Yrotation Zrotation
									JOINT newVegas:LeftHandThumb2
									{
										OFFSET 5.480453 -3.164139 3.164143
										CHANNELS 3 Xrotation Yrotation Zrotation
										JOINT newVegas:LeftHandThumb3
										{
											OFFSET 5.159721 -2.978973 2.978967
											CHANNELS 3 Xrotation Yrotation Zrotation
											End Site
											{
												OFFSET 2.494507 5.926697 1.738678
											}
										}
									}
								}
								JOINT newVegas:LeftHandIndex1
								{
									OFFSET 18.578728 -0.527832 5.208049
									CHANNELS 3 Xrotation Yrotation Zrotation
									JOINT newVegas:LeftHandIndex2
									{
										OFFSET 3.192009 0.000000 0.000000
										CHANNELS 3 Xrotation Yrotation Zrotation
										JOINT newVegas:LeftHandIndex3
										{
											OFFSET 3.835129 0.000000 0.000000
											CHANNELS 3 Xrotation Yrotation Zrotation
											End Site
											{
												OFFSET -0.034599 3.816971 0.371180
											}
										}
									}
								}
								JOINT newVegas:LeftHandMiddle1
								{
									OFFSET 18.476105 0.000000 0.000000
									CHANNELS 3 Xrotation Yrotation Zrotation
									JOINT newVegas:LeftHandMiddle2
									{
										OFFSET 3.324875 0.000000 0.000000
										CHANNELS 3 Xrotation Yrotation Zrotation
										JOINT newVegas:LeftHandMiddle3
										{
											OFFSET 4.596550 0.000000 0.000000
											CHANNELS 3 Xrotation Yrotation Zrotation
											End Site
											{
												OFFSET 0.057701 4.578827 0.399218
											}
										}
									}
								}
								JOINT newVegas:LeftHandRing1
								{
									OFFSET 17.732719 0.121887 -4.201567
									CHANNELS 3 Xrotation Yrotation Zrotation
									JOINT newVegas:LeftHandRing2
									{
										OFFSET 2.733170 0.000000 0.000000
										CHANNELS 3 Xrotation Yrotation Zrotation
										JOINT newVegas:LeftHandRing3
										{
											OFFSET 3.178268 0.000000 0.000000
											CHANNELS 3 Xrotation Yrotation Zrotation
											End Site
											{
												OFFSET 0.119102 3.170624 0.185394
											}
										}
									}
								}
								JOINT newVegas:LeftHandPinky1
								{
									OFFSET 15.989624 -0.606689 -7.535461
									CHANNELS 3 Xrotation Yrotation Zrotation
									JOINT newVegas:LeftHandPinky2
									{
										OFFSET 2.538986 0.000000 0.000000
										CHANNELS 3 Xrotation Yrotation Zrotation
										JOINT newVegas:LeftHandPinky3
										{
											OFFSET 2.593102 0.000000 0.000000
											CHANNELS 3 Xrotation Yrotation Zrotation
											End Site
											{
												OFFSET -0.150902 2.584198 0.152708
											}
										}
									}
								}
							}
							JOINT newVegas:Left_Sleeve
							{
								OFFSET 0.267448 -0.649796 0.577675
								CHANNELS 3 Xrotation Yrotation Zrotation
								End Site
								{
									OFFSET 0.000000 15.991241 0.000000
								}
							}
							JOINT newVegas:Left_CapeC
							{
								OFFSET 15.715958 -8.608795 -6.935905
								CHANNELS 3 Xrotation Yrotation Zrotation
								JOINT newVegas:Left_CapeC1
								{
									OFFSET 0.000000 -8.688499 0.000000
									CHANNELS 3 Xrotation Yrotation Zrotation
									End Site
									{
										OFFSET 0.000000 8.688499 0.000000
									}
								}
							}
						}
						JOINT newVegas:Left_CapeB
						{
							OFFSET 26.118385 -8.608795 -7.079235
							CHANNELS 3 Xrotation Yrotation Zrotation
							JOINT newVegas:Left_CapeB1
							{
								OFFSET 0.000000 -8.688499 0.000000
								CHANNELS 3 Xrotation Yrotation Zrotation
								End Site
								{
									OFFSET 0.000000 8.688499 0.000000
								}
							}
						}
						JOINT newVegas:Left_CapeA
						{
							OFFSET 5.115639 -8.608795 -10.395809
							CHANNELS 3 Xrotation Yrotation Zrotation
							JOINT newVegas:Left_CapeA1
							{
								OFFSET 0.000000 -8.688499 0.000000
								CHANNELS 3 Xrotation Yrotation Zrotation
								End Site
								{
									OFFSET 0.000000 8.688499 0.000000
								}
							}
						}
					}
				}
				JOINT newVegas:RightShoulder
				{
					OFFSET -15.263000 10.923401 -0.547700
					CHANNELS 3 Xrotation Yrotation Zrotation
					JOINT newVegas:RightArm
					{
						OFFSET -25.438599 -2.830597 -13.032500
						CHANNELS 3 Xrotation Yrotation Zrotation
						JOINT newVegas:RightForeArm
						{
							OFFSET -29.960503 0.000000 0.000000
							CHANNELS 3 Xrotation Yrotation Zrotation
							JOINT newVegas:RightHand
							{
								OFFSET -27.849251 0.000000 0.000000
								CHANNELS 3 Xrotation Yrotation Zrotation
								JOINT newVegas:RightHandThumb1
								{
									OFFSET -4.487587 -3.305161 6.305391
									CHANNELS 3 Xrotation Yrotation Zrotation
									JOINT newVegas:RightHandThumb2
									{
										OFFSET -5.480453 -3.164139 3.164143
										CHANNELS 3 Xrotation Yrotation Zrotation
										JOINT newVegas:RightHandThumb3
										{
											OFFSET -5.159721 -2.978973 2.978967
											CHANNELS 3 Xrotation Yrotation Zrotation
											End Site
											{
												OFFSET -2.494507 5.926697 1.738678
											}
										}
									}
								}
								JOINT newVegas:RightHandIndex1
								{
									OFFSET -18.578728 -0.527832 5.208049
									CHANNELS 3 Xrotation Yrotation Zrotation
									JOINT newVegas:RightHandIndex2
									{
										OFFSET -3.192009 0.000000 0.000000
										CHANNELS 3 Xrotation Yrotation Zrotation
										JOINT newVegas:RightHandIndex3
										{
											OFFSET -3.835129 0.000000 0.000000
											CHANNELS 3 Xrotation Yrotation Zrotation
											End Site
											{
												OFFSET 0.034599 3.816971 0.371180
											}
										}
									}
								}
								JOINT newVegas:RightHandMiddle1
								{
									OFFSET -18.476105 0.000000 0.000000
									CHANNELS 3 Xrotation Yrotation Zrotation
									JOINT newVegas:RightHandMiddle2
									{
										OFFSET -3.324875 0.000000 0.000000
										CHANNELS 3 Xrotation Yrotation Zrotation
										JOINT newVegas:RightHandMiddle3
										{
											OFFSET -4.596550 0.000000 0.000000
											CHANNELS 3 Xrotation Yrotation Zrotation
											End Site
											{
												OFFSET -0.057701 4.578827 0.399218
											}
										}
									}
								}
								JOINT newVegas:RightHandRing1
								{
									OFFSET -17.732719 0.121887 -4.201567
									CHANNELS 3 Xrotation Yrotation Zrotation
									JOINT newVegas:RightHandRing2
									{
										OFFSET -2.733170 0.000000 0.000000
										CHANNELS 3 Xrotation Yrotation Zrotation
										JOINT newVegas:RightHandRing3
										{
											OFFSET -3.178268 0.000000 0.000000
											CHANNELS 3 Xrotation Yrotation Zrotation
											End Site
											{
												OFFSET -0.119102 3.170624 0.185394
											}
										}
									}
								}
								JOINT newVegas:RightHandPinky1
								{
									OFFSET -15.989624 -0.606689 -7.535461
									CHANNELS 3 Xrotation Yrotation Zrotation
									JOINT newVegas:RightHandPinky2
									{
										OFFSET -2.538986 0.000000 0.000000
										CHANNELS 3 Xrotation Yrotation Zrotation
										JOINT newVegas:RightHandPinky3
										{
											OFFSET -2.593102 0.000000 0.000000
											CHANNELS 3 Xrotation Yrotation Zrotation
											End Site
											{
												OFFSET 0.150902 2.584198 0.152708
											}
										}
									}
								}
							}
							JOINT newVegas:Right_CapeC
							{
								OFFSET -15.715958 -8.608795 -6.935905
								CHANNELS 3 Xrotation Yrotation Zrotation
								JOINT newVegas:Right_CapeC1
								{
									OFFSET 0.000000 -8.688499 0.000000
									CHANNELS 3 Xrotation Yrotation Zrotation
									End Site
									{
										OFFSET 0.000000 8.688499 0.000000
									}
								}
							}
							JOINT newVegas:Right_Sleeve
							{
								OFFSET -0.267448 -0.649994 0.577675
								CHANNELS 3 Xrotation Yrotation Zrotation
								End Site
								{
									OFFSET 0.000000 15.991302 0.000000
								}
							}
						}
						JOINT newVegas:Right_CapeA
						{
							OFFSET -5.115540 -8.608795 -10.395824
							CHANNELS 3 Xrotation Yrotation Zrotation
							JOINT newVegas:Right_CapeA1
							{
								OFFSET 0.000000 -8.688499 0.000000
								CHANNELS 3 Xrotation Yrotation Zrotation
								End Site
								{
									OFFSET 0.000000 8.688499 0.000000
								}
							}
						}
						JOINT newVegas:Right_CapeB
						{
							OFFSET -26.118187 -8.608795 -7.079266
							CHANNELS 3 Xrotation Yrotation Zrotation
							JOINT newVegas:Right_CapeB1
							{
								OFFSET 0.000000 -8.688499 0.000000
								CHANNELS 3 Xrotation Yrotation Zrotation
								End Site
								{
									OFFSET 0.000000 8.688499 0.000000
								}
							}
						}
					}
				}
				JOINT newVegas:Left_Collar
				{
					OFFSET 18.625099 8.655502 8.828100
					CHANNELS 3 Xrotation Yrotation Zrotation
					JOINT newVegas:Left_Collar1
					{
						OFFSET 14.783401 10.540405 -1.259500
						CHANNELS 3 Xrotation Yrotation Zrotation
						End Site
						{
							OFFSET 0.000000 18.199875 0.000000
						}
					}
				}
				JOINT newVegas:Collar_Back
				{
					OFFSET 0.000000 15.630707 -20.132601
					CHANNELS 3 Xrotation Yrotation Zrotation
					End Site
					{
						OFFSET 0.000000 22.523010 0.000000
					}
				}
				JOINT newVegas:Left_Peck
				{
					OFFSET 17.239599 -5.132599 25.482599
					CHANNELS 3 Xrotation Yrotation Zrotation
					End Site
					{
						OFFSET 0.000000 22.523010 0.000000
					}
				}
				JOINT newVegas:Right_Peck
				{
					OFFSET -17.239599 -5.132202 25.482599
					CHANNELS 3 Xrotation Yrotation Zrotation
					End Site
					{
						OFFSET 0.000000 22.523010 0.000000
					}
				}
				JOINT newVegas:Right_Collar
				{
					OFFSET -18.625099 8.655792 8.828100
					CHANNELS 3 Xrotation Yrotation Zrotation
					JOINT newVegas:Right_Collar1
					{
						OFFSET -14.783401 10.539993 -1.259500
						CHANNELS 3 Xrotation Yrotation Zrotation
						End Site
						{
							OFFSET 0.000000 18.199631 0.000000
						}
					}
				}
			}
		}
		JOINT newVegas:Belly
		{
			OFFSET 0.000000 -6.540398 9.014299
			CHANNELS 3 Xrotation Yrotation Zrotation
			End Site
			{
				OFFSET 0.000000 11.566666 0.000000
			}
		}
	}
	JOINT newVegas:ElvisFacialAnim_Joint
	{
		OFFSET 1.000000 -95.330101 -8.825800
		CHANNELS 3 Xrotation Yrotation Zrotation
		End Site
		{
			OFFSET 0.000000 35.315800 0.000000
		}
	}
}
MOTION
Frames: 4
Frame Time: 0.016667
-3.153662 85.350197 9.576227 -7.692308 22.964021 7.675127 -0.000000 -0.000001 -0.000000 -24.886307 -15.354590 8.030685 44.829158 -1.330407 0.128351 -15.767750 -4.668351 -19.353799 -0.000000 0.000001 -0.000000 -0.000000 -0.000000 0.000001 -9.402235 -28.716776 -25.753215 53.848306 1.736550 -0.111271 -40.221615 -6.915706 12.261426 0.000000 0.000000 0.000000 0.000002 0.000001 -0.000001 19.081040 1.163044 1.408635 5.234401 1.638213 -0.510233 5.225527 1.690294 -0.516648 -3.339749 -2.121169 -1.287323 -3.339752 -2.121166 -1.287321 0.000001 0.000002 -0.000000 -3.339750 -2.121172 -1.287322 -3.339750 -2.121177 -1.287320 -0.000000 0.000000 -0.000000 0.000001 0.000002 -0.000000 -0.697454 -12.691490 -24.679618 -13.018054 -5.162525 -28.488919 51.978747 -46.839648 7.482873 4.023834 -22.781630 14.370762 11.432776 11.898652 2.278019 0.907253 24.171836 -3.294990 0.000003 0.000000 -0.000004 -4.825743 9.288207 -23.825221 3.434095 9.250162 -40.028395 -0.000004 0.000002 -0.000002 -11.628047 16.087792 -27.374746 11.222072 9.790858 -61.810350 -0.000001 -0.000002 0.000000 -8.924433 18.188751 -48.130776 11.602472 5.110903 -60.456381 0.000001 0.000001 0.000000 -5.365000 8.158740 -54.955750 9.871762 -13.977209 -74.788427 -0.000001 -0.000005 -0.000000 -0.000002 0.000001 -0.000001 -0.000002 0.000001 -0.000001 -0.000003 0.000001 -0.000001 0.000001 -0.000001 -0.000003 0.000001 -0.000001 -0.000006 0.000001 -0.000001 -0.000003 0.000001 -0.000001 -0.000002 6.242215 -2.614801 -11.084384 -35.911372 -11.573024 -6.604743 -129.166090 14.300481 149.579340 18.373689 2.814406 -8.754318 -10.063574 -12.114451 -5.432848 -8.224831 -5.483055 5.365299 -0.000003 -0.000001 0.000001 4.411658 -5.661978 62.206283 9.270946 -12.376252 79.811730 0.000000 0.000002 0.000001 -5.517153 -19.375235 62.311481 15.444342 -10.143903 85.739945 0.000001 0.000001 0.000003 -7.692926 -21.405987 73.131252 13.187956 -6.413914 74.081885 0.000003 0.000002 0.000000 -6.411604 -22.996140 83.381624 9.054125 13.497784 82.144759 0.000004 -0.000000 0.000004 0.000002 0.000001 -0.000000 0.000001 0.000000 0.000000 0.000002 0.000000 -0.000000 0.000000 0.000002 -0.000000 0.000000 0.000003 0.000000 0.000000 0.000002 -0.000000 0.000000 0.000003 0.000000 -0.000001 -0.000001 -0.000000 -0.000001 -0.000001 -0.000000 -0.000001 -0.000001 -0.000000 -0.000001 -0.000001 -0.000000 -0.000001 -0.000001 -0.000000 -0.000001 -0.000001 -0.000000 -0.000001 -0.000001 -0.000000 0.000000 0.000001 -0.000000 -0.000000 -0.000001 -0.000000 
-3.285367 85.379349 10.002548 -7.920674 24.637870 7.697488 -0.000000 0.000001 -0.000000 -24.975690 -17.168131 7.769461 44.425873 -1.318871 0.125936 -15.489313 -4.629516 -19.826297 0.000000 -0.000000 0.000000 0.000001 0.000000 0.000001 -7.539103 -30.699580 -24.836390 52.317562 1.682191 -0.101474 -40.386499 -7.345648 12.249585 0.000000 -0.000000 -0.000000 -0.000000 0.000000 -0.000001 18.997560 1.056153 1.385333 5.096426 1.511982 -0.476951 5.088411 1.550697 -0.475987 -3.503198 -1.755636 -2.080862 -3.503190 -1.755634 -2.080864 0.000000 0.000000 -0.000000 -3.503115 -1.755636 -2.080858 -3.503195 -1.755615 -2.080864 -0.000000 0.000001 -0.000000 0.000000 0.000000 -0.000000 -0.787873 -12.075487 -26.714946 -11.942304 -3.432191 -26.261536 55.390870 -49.285187 10.889079 5.145038 -22.468978 14.527722 11.432774 11.898666 2.278029 1.501891 25.466681 -3.312479 -0.000000 -0.000000 -0.000005 -3.794590 7.957275 -23.971116 4.254767 10.064916 -46.827695 0.000001 -0.000002 0.000000 -11.756363 14.887295 -29.374215 11.904635 9.966816 -65.739601 -0.000000 -0.000004 -0.000003 -9.476052 18.032210 -49.017802 11.714563 5.347327 -61.842876 0.000002 -0.000004 0.000002 -6.800921 9.633162 -56.189009 9.701537 -13.949417 -75.709409 0.000004 0.000002 0.000001 0.000001 -0.000001 0.000001 0.000001 -0.000001 0.000001 0.000001 -0.000000 0.000001 -0.000000 0.000001 -0.000002 0.000001 0.000001 -0.000002 -0.000000 0.000001 -0.000002 -0.000001 0.000002 -0.000002 7.717151 -7.373790 -5.050553 -43.972167 -21.360508 -11.904042 -118.831317 10.484324 148.086452 21.961614 11.633970 -14.248320 -10.063561 -12.114472 -5.432870 -8.226159 -5.485136 5.369679 0.000001 -0.000000 -0.000000 2.105028 -3.843924 56.888629 9.938184 -12.409276 83.561183 -0.000003 0.000001 -0.000000 -5.678342 -19.240248 61.807318 15.499926 -10.129633 85.942631 0.000002 -0.000001 0.000001 -7.133069 -21.873408 74.675572 13.186732 -6.412946 74.080000 0.000002 0.000001 0.000001 -5.396353 -23.712745 86.009089 9.042670 13.516173 81.894733 0.000002 0.000001 0.000001 0.000001 -0.000000 -0.000000 0.000001 -0.000001 0.000000 0.000001 -0.000001 -0.000002 -0.000000 0.000000 0.000000 -0.000000 0.000000 0.000000 -0.000000 0.000000 0.000000 -0.000000 -0.000000 0.000000 -0.000001 -0.000001 -0.000000 -0.000001 -0.000001 -0.000000 -0.000001 -0.000001 -0.000000 -0.000001 -0.000001 -0.000000 -0.000001 -0.000001 -0.000000 -0.000001 -0.000001 -0.000000 -0.000001 -0.000001 -0.000000 0.000000 0.000000 -0.000000 -0.000000 0.000001 -0.000000 
-3.323294 85.403053 10.428539 -8.064902 26.722526 8.053714 -0.000000 0.000000 -0.000000 -25.297040 -19.177260 6.925484 43.612452 -1.280778 0.123569 -14.888083 -4.570933 -20.244119 0.000000 0.000000 -0.000000 -0.000003 0.000000 0.000001 -5.824124 -32.902111 -24.312991 50.769995 1.673423 -0.088304 -40.608992 -7.938914 12.369717 0.000000 0.000000 -0.000000 0.000003 -0.000002 -0.000000 19.004238 0.661455 1.449815 5.119967 0.756775 -0.529776 5.119969 0.792227 -0.531181 -3.494745 -1.506343 -2.119221 -3.494764 -1.506333 -2.119223 -0.000000 0.000001 -0.000001 -3.494821 -1.506334 -2.119224 -3.494680 -1.506334 -2.119220 0.000001 -0.000001 -0.000000 -0.000000 0.000001 -0.000001 -0.786547 -12.473175 -26.068143 -9.832090 0.874627 -25.954341 55.683739 -52.355736 13.970436 5.154070 -22.384084 15.753924 11.432780 11.898672 2.278007 2.008781 26.268612 -3.133979 -0.000001 0.000000 -0.000006 -2.251146 6.806030 -25.190445 5.503164 11.025391 -56.130327 -0.000004 0.000001 -0.000001 -11.459809 14.203338 -33.122644 12.927597 10.135815 -71.691933 -0.000001 -0.000005 -0.000003 -10.290449 17.678198 -51.680992 12.170176 5.710918 -65.667611 0.000000 -0.000004 0.000002 -9.073673 11.365289 -57.531558 9.481994 -13.836163 -77.686695 -0.000000 -0.000002 0.000001 -0.000002 0.000000 0.000002 -0.000002 0.000000 0.000002 -0.000003 0.000000 0.000002 -0.000001 0.000002 0.000000 0.000000 0.000002 -0.000001 -0.000001 0.000002 0.000000 -0.000001 0.000002 0.000001 8.148601 -9.861668 -1.653015 -54.292405 -30.007808 -14.466124 -110.199932 8.391179 146.424803 18.072110 15.336302 -13.285906 -10.063552 -12.114464 -5.432856 -8.227438 -5.487221 5.374029 0.000001 -0.000002 -0.000003 1.196548 -3.158883 56.657283 10.312594 -12.414087 85.657710 0.000002 -0.000001 -0.000002 -5.742769 -19.186643 61.604003 15.602925 -10.102532 86.317431 -0.000001 0.000001 0.000003 -6.814852 -22.127511 75.537712 13.249250 -6.405583 74.350598 0.000001 -0.000003 -0.000003 -4.320091 -24.385645 88.689856 9.030325 13.536143 81.623028 0.000002 0.000002 -0.000000 -0.000001 -0.000001 -0.000003 -0.000001 -0.000002 -0.000001 -0.000001 -0.000001 -0.000003 0.000000 0.000001 -0.000000 0.000000 0.000001 -0.000001 0.000000 0.000001 -0.000000 0.000000 0.000001 -0.000000 0.000002 0.000000 -0.000000 0.000002 0.000000 -0.000000 0.000002 0.000000 -0.000000 0.000002 0.000000 -0.000000 0.000002 0.000000 -0.000000 0.000002 0.000000 -0.000000 0.000002 0.000000 -0.000000 0.000000 0.000001 0.000000 -0.000000 0.000000 -0.000000 
-3.362078 85.434105 10.765642 -8.011324 28.571740 8.345250 -0.000000 0.000001 -0.000000 -25.728419 -20.949170 6.117875 42.670575 -1.258410 0.120933 -14.206222 -4.451220 -20.613118 0.000000 0.000000 0.000000 0.000000 0.000000 -0.000000 -4.541749 -34.784060 -23.822134 49.399760 1.657705 -0.076634 -40.728391 -8.472378 12.458955 0.000000 -0.000002 -0.000000 -0.000003 0.000002 0.000000 19.015371 0.133876 1.536720 5.137559 -0.395260 -0.742505 5.145103 -0.355856 -0.748201 -3.484074 -1.302292 -2.103265 -3.484088 -1.302312 -2.103263 -0.000000 -0.000001 0.000001 -3.484083 -1.302306 -2.103265 -3.484088 -1.302303 -2.103264 -0.000000 0.000002 -0.000000 -0.000000 -0.000001 0.000000 -0.729884 -12.936520 -24.594036 -7.448409 5.738908 -26.622710 53.665893 -55.184097 15.413777 5.030939 -22.352308 16.946785 11.432756 11.898660 2.278035 2.417356 26.741176 -2.824121 -0.000000 0.000003 -0.000004 -0.680626 5.686692 -26.936062 6.892000 11.728968 -65.387832 -0.000003 0.000002 -0.000005 -11.129755 13.721702 -37.247511 13.953059 10.245291 -77.699337 -0.000002 0.000001 0.000000 -11.165319 17.079405 -55.081132 12.723748 6.058964 -69.966860 -0.000001 0.000001 0.000000 -11.557514 12.642561 -58.779645 9.272225 -13.696401 -79.792701 0.000002 -0.000002 0.000002 0.000001 0.000001 -0.000001 0.000001 0.000001 -0.000001 0.000000 0.000001 -0.000001 -0.000002 0.000000 -0.000000 -0.000001 0.000000 -0.000001 -0.000002 0.000000 -0.000000 -0.000002 0.000001 0.000001 8.112592 -11.609560 1.893597 -67.056154 -34.147606 -17.067553 -102.494235 5.567649 145.072385 10.148209 17.432284 -8.852116 -10.063558 -12.114488 -5.432849 -8.228747 -5.489365 5.378391 -0.000001 -0.000002 -0.000004 0.713235 -2.871479 56.761327 10.462537 -12.409620 86.501224 0.000002 0.000000 0.000000 -5.871312 -19.074755 61.194096 15.711418 -10.073249 86.712564 -0.000002 0.000003 0.000003 -6.700051 -22.214809 75.840809 13.352721 -6.393742 74.797825 0.000001 -0.000003 -0.000001 -3.692228 -24.744718 90.215714 9.019903 13.553496 81.391259 -0.000001 -0.000004 0.000001 -0.000001 -0.000000 -0.000003 -0.000002 -0.000002 -0.000002 -0.000001 -0.000000 -0.000003 0.000001 -0.000001 -0.000000 0.000001 -0.000001 -0.000000 0.000001 -0.000001 -0.000000 0.000001 -0.000001 -0.000000 0.000001 0.000000 0.000000 0.000001 0.000000 0.000000 0.000001 0.000000 0.000000 0.000001 0.000000 0.000000 0.000001 0.000000 0.000000 0.000001 0.000000 0.000000 0.000001 0.000000 0.000000 -0.000001 -0.000001 0.000000 -0.000000 0.000001 -0.000000 
